<?xml version="1.0" encoding="UTF-8"?>
<svg version="1.1" xmlns="http://www.w3.org/2000/svg" width="1024" height="1024">
<path d="M0 0 C5.83375065 4.47249027 11.71094552 8.87592949 17.64282227 13.21728516 C25.27044945 18.80359274 32.7992752 24.51005411 40.30688477 30.25634766 C46.04184954 34.63792841 51.8204179 38.95271473 57.64282227 43.21728516 C65.27022243 48.80390936 72.79926791 54.51004854 80.30688477 60.25634766 C86.04184954 64.63792841 91.8204179 68.95271473 97.64282227 73.21728516 C105.27022243 78.80390936 112.79926791 84.51004854 120.30688477 90.25634766 C126.04184954 94.63792841 131.8204179 98.95271473 137.64282227 103.21728516 C145.27022243 108.80390936 152.79926791 114.51004854 160.30688477 120.25634766 C166.04184954 124.63792841 171.8204179 128.95271473 177.64282227 133.21728516 C185.27022243 138.80390936 192.79926791 144.51004854 200.30688477 150.25634766 C206.04184954 154.63792841 211.8204179 158.95271473 217.64282227 163.21728516 C225.27022243 168.80390936 232.79926791 174.51004854 240.30688477 180.25634766 C246.04185022 184.63792893 251.82043382 188.95269175 257.64282227 193.21728516 C266.32475175 199.57675954 274.88944381 206.08337274 283.43579102 212.62353516 C284.22904785 213.22423828 285.02230469 213.82494141 285.83959961 214.44384766 C287.36659947 215.61960842 288.87286426 216.8228351 290.35620117 218.05322266 C291.38946533 218.89240234 291.38946533 218.89240234 292.44360352 219.74853516 C293.33752808 220.49973633 293.33752808 220.49973633 294.24951172 221.26611328 C296.92423179 222.60985402 298.34081089 222.13617002 301.14282227 221.21728516 C303.10638738 220.07067621 303.10638738 220.07067621 304.90063477 218.54931641 C305.59842041 217.99324707 306.29620605 217.43717773 307.01513672 216.86425781 C307.75852295 216.25888184 308.50190918 215.65350586 309.26782227 215.02978516 C310.88721784 213.73988988 312.50836623 212.45219265 314.13110352 211.16650391 C314.96206543 210.5069873 315.79302734 209.8474707 316.64916992 209.16796875 C320.52126838 206.13898239 324.48347749 203.23850872 328.45532227 200.34228516 C335.24513302 195.37769987 341.96432473 190.33061528 348.64282227 185.21728516 C356.02914236 179.56362554 363.47476959 174.00258126 370.97875977 168.50634766 C376.9195366 164.14451483 382.79035487 159.69673967 388.64282227 155.21728516 C396.02924018 149.56375121 403.47476692 144.00258322 410.97875977 138.50634766 C416.9195366 134.14451483 422.79035487 129.69673967 428.64282227 125.21728516 C436.02924018 119.56375121 443.47476692 114.00258322 450.97875977 108.50634766 C456.9195366 104.14451483 462.79035487 99.69673967 468.64282227 95.21728516 C476.02924018 89.56375121 483.47476692 84.00258322 490.97875977 78.50634766 C496.9195366 74.14451483 502.79035487 69.69673967 508.64282227 65.21728516 C516.02924018 59.56375121 523.47476692 54.00258322 530.97875977 48.50634766 C536.9195366 44.14451483 542.79035487 39.69673967 548.64282227 35.21728516 C556.028418 29.5643805 563.4724923 24.00294677 570.9765625 18.50854492 C576.94242478 14.12944705 582.83108668 9.65580888 588.70532227 5.15478516 C618.3115076 -17.47433726 646.54497102 -36.38091349 685.58032227 -31.28662109 C705.43595283 -28.12858269 723.33628637 -19.28279169 738.14282227 -5.78271484 C739.23336914 -4.79658203 739.23336914 -4.79658203 740.34594727 -3.79052734 C752.46109407 7.72348623 762.30490675 25.52253098 765.76782227 41.90478516 C766.1274707 43.55027344 766.1274707 43.55027344 766.49438477 45.22900391 C768.73221499 57.85960838 768.28647458 70.76176811 768.27653503 83.53564453 C768.27840483 85.81433907 768.28070621 88.09303328 768.28340036 90.37172699 C768.2895036 96.61511983 768.28938651 102.85849924 768.28820598 109.10189438 C768.28802262 115.14942028 768.29251737 121.19694166 768.29681887 127.24446559 C768.30647311 141.1344936 768.30930236 155.0245179 768.30987593 168.91454887 C768.31033595 179.64070575 768.31239679 190.36686117 768.31557655 201.09301758 C768.31647412 204.18350982 768.31736394 207.27400207 768.31825143 210.36449432 C768.31847248 211.13284626 768.31869353 211.90119819 768.31892127 212.69283351 C768.3250723 234.29412357 768.32902214 255.89541313 768.328578 277.4967041 C768.32856242 278.31054815 768.32854684 279.1243922 768.32853079 279.96289819 C768.32844768 284.08756793 768.32834864 288.21223766 768.32824608 292.33690739 C768.32821616 293.56561776 768.32821616 293.56561776 768.32818564 294.81915057 C768.3281452 296.47564876 768.3281034 298.13214695 768.32806025 299.78864515 C768.32744729 325.56955162 768.33495909 351.35044495 768.34863281 377.13134766 C768.36399681 406.1109252 768.3725989 435.09049411 768.37166959 464.07007599 C768.37159496 467.16056824 768.37154625 470.25106049 768.37151527 473.34155273 C768.37149779 474.48295071 768.37149779 474.48295071 768.37147996 475.64740723 C768.3714492 487.88470608 768.37783077 500.12199349 768.38644754 512.35928893 C768.3949284 524.657915 768.39591051 536.95652437 768.38933822 549.25515175 C768.38597059 555.91580951 768.3860272 562.57643476 768.39469147 569.23709106 C768.4025438 575.33625947 768.40113793 581.43535358 768.39240734 587.53452015 C768.3908696 589.73893675 768.39269879 591.94335887 768.39826741 594.14776897 C768.45232523 617.06820266 765.93317283 637.08812126 749.39282227 654.46728516 C742.12014234 661.36868713 734.37423806 665.97786317 725.08032227 669.59228516 C724.44400879 669.84333008 723.80769531 670.094375 723.15209961 670.35302734 C670.21957966 689.66242282 610.48733772 673.21728516 554.14282227 673.21728516 C553.81282227 554.08728516 553.48282227 434.95728516 553.14282227 312.21728516 C538.31319703 323.11718455 538.31319703 323.11718455 523.64282227 334.21728516 C516.25785431 339.87268813 508.81083971 345.43201485 501.30688477 350.92822266 C495.36610793 355.29005548 489.49528966 359.73783064 483.64282227 364.21728516 C476.25640435 369.8708191 468.81087761 375.4319871 461.30688477 380.92822266 C455.36610793 385.29005548 449.49528966 389.73783064 443.64282227 394.21728516 C436.25640435 399.8708191 428.81087761 405.4319871 421.30688477 410.92822266 C415.36610793 415.29005548 409.49528966 419.73783064 403.64282227 424.21728516 C396.25640435 429.8708191 388.81087761 435.4319871 381.30688477 440.92822266 C375.36610793 445.29005548 369.49528966 449.73783064 363.64282227 454.21728516 C356.26013881 459.86796076 348.81922654 465.42752452 341.31787109 470.91943359 C335.26498321 475.36212842 329.29184974 479.90299068 323.33032227 484.46728516 C320.73439664 486.44321024 318.13702394 488.41721082 315.53881836 490.39013672 C314.00065271 491.56311733 312.46672638 492.74168998 310.93823242 493.92724609 C309.01839692 495.41554012 307.08355278 496.88141282 305.14282227 498.34228516 C304.59779053 498.77444336 304.05275879 499.20660156 303.49121094 499.65185547 C301.95532227 500.78759766 301.95532227 500.78759766 299.14282227 502.21728516 C295.46132699 501.12744271 292.73676296 499.35731989 289.72875977 497.01416016 C288.89538086 496.37091797 288.06200195 495.72767578 287.20336914 495.06494141 C286.31713867 494.37271484 285.4309082 493.68048828 284.51782227 492.96728516 C282.6203795 491.50245408 280.7219219 490.03893671 278.82250977 488.57666016 C277.86828125 487.84125 276.91405273 487.10583984 275.9309082 486.34814453 C271.87540594 483.24863282 267.76383863 480.22883069 263.64282227 477.21728516 C256.01476711 471.6315751 248.48635542 465.92450554 240.97875977 460.17822266 C235.24379499 455.7966419 229.46522664 451.48185558 223.64282227 447.21728516 C216.0154221 441.63066095 208.48637662 435.92452177 200.97875977 430.17822266 C195.24379499 425.7966419 189.46522664 421.48185558 183.64282227 417.21728516 C176.0154221 411.63066095 168.48637662 405.92452177 160.97875977 400.17822266 C155.24379499 395.7966419 149.46522664 391.48185558 143.64282227 387.21728516 C136.0154221 381.63066095 128.48637662 375.92452177 120.97875977 370.17822266 C115.24379499 365.7966419 109.46522664 361.48185558 103.64282227 357.21728516 C96.91784862 352.29163556 90.26239611 347.28366968 83.64282227 342.21728516 C70.29549993 332.00514055 56.73438204 322.1020559 43.14282227 312.21728516 C42.81282227 431.34728516 42.48282227 550.47728516 42.14282227 673.21728516 C-133.85221906 673.21728516 -133.85221906 673.21728516 -153.85717773 654.21728516 C-167.43162063 638.57106719 -172.03457584 622.71671685 -171.98581219 602.39230061 C-171.98756522 601.45158546 -171.98931826 600.51087032 -171.99112442 599.54164866 C-171.99576199 596.40163692 -171.99332472 593.26167194 -171.9908905 590.12165833 C-171.9927596 587.84270318 -171.9950607 585.56374835 -171.99775583 583.28479403 C-172.00386796 577.03127277 -172.00374092 570.77776489 -172.00256145 564.52424133 C-172.00237827 558.46962345 -172.00687076 552.4150101 -172.01117434 546.36039418 C-172.02083586 532.44987038 -172.02365813 518.53935026 -172.0242314 504.6288235 C-172.02469128 493.88452862 -172.02675139 483.14023519 -172.02993202 472.39594078 C-172.03082959 469.30103753 -172.03171941 466.20613428 -172.0326069 463.11123103 C-172.03282795 462.34178583 -172.033049 461.57234063 -172.03327674 460.77957891 C-172.03942936 439.14185743 -172.04337747 417.50413646 -172.04293346 395.86641407 C-172.04291789 395.05093078 -172.04290231 394.2354475 -172.04288626 393.39525259 C-172.04280315 389.26222855 -172.04270411 385.1292045 -172.04260155 380.99618045 C-172.0425816 380.17537618 -172.04256166 379.3545719 -172.04254111 378.50889476 C-172.04250067 376.84902895 -172.04245887 375.18916314 -172.04241572 373.52929733 C-172.04180306 347.70840938 -172.04930849 321.88753458 -172.06298828 296.06665039 C-172.07835836 267.04347664 -172.08695395 238.02031151 -172.08602506 208.99713343 C-172.08595043 205.90065841 -172.08590172 202.80418338 -172.08587074 199.70770836 C-172.08585909 198.94530249 -172.08584743 198.18289662 -172.08583543 197.39738755 C-172.08580469 185.14383427 -172.09218259 172.89029243 -172.10080301 160.63674255 C-172.10929165 148.31541635 -172.11025995 135.99410681 -172.10369369 123.6727793 C-172.10032991 117.00163742 -172.10036937 110.33052799 -172.10904694 103.65938759 C-172.11691579 97.54702952 -172.11547648 91.43474548 -172.1067628 85.32238921 C-172.10522868 83.11651356 -172.10704065 80.91063238 -172.11262288 78.70476327 C-172.16014193 58.58753167 -171.09713025 39.51291763 -161.85717773 21.21728516 C-161.19395508 19.85796875 -161.19395508 19.85796875 -160.51733398 18.47119141 C-149.56653083 -2.91472611 -129.37736058 -19.4247463 -106.66381836 -27.015625 C-103.41543008 -28.02978231 -100.14956254 -28.92034046 -96.85717773 -29.78271484 C-95.9612793 -30.02892578 -95.06538086 -30.27513672 -94.14233398 -30.52880859 C-57.86245109 -38.83936629 -27.60817099 -21.17177406 0 0 Z " fill="#EA4235" transform="translate(213.857177734375,180.78271484375)"/>
<path d="M0 0 C2.81047932 1.37485407 5.29057247 2.83360251 7.80859375 4.6953125 C8.54464844 5.23800781 9.28070313 5.78070313 10.0390625 6.33984375 C10.83054687 6.92894531 11.62203125 7.51804687 12.4375 8.125 C13.27152344 8.74246094 14.10554688 9.35992187 14.96484375 9.99609375 C22.07881246 15.27863897 29.12342138 20.65058169 36.15991211 26.03564453 C41.89604575 30.41865249 47.67614956 34.73437041 53.5 39 C61.12740017 44.5866242 68.65644565 50.29276338 76.1640625 56.0390625 C81.89902727 60.42064326 87.67759563 64.73542958 93.5 69 C101.12740017 74.5866242 108.65644565 80.29276338 116.1640625 86.0390625 C121.89902727 90.42064326 127.67759563 94.73542958 133.5 99 C141.12740017 104.5866242 148.65644565 110.29276338 156.1640625 116.0390625 C162.65960983 121.0017373 169.22045979 125.8671438 175.81616211 130.69555664 C182.82368911 135.83860838 189.73478194 141.10416602 196.62109375 146.40820312 C197.43835938 147.03533203 198.255625 147.66246094 199.09765625 148.30859375 C199.80414307 148.85314209 200.51062988 149.39769043 201.23852539 149.95874023 C203.85106787 152.01056263 203.85106787 152.01056263 206.41489828 153.21517903 C210.60146405 155.55012151 213.48660609 157.31319041 214.9233954 162.03391254 C215.2638663 165.92792058 215.28635091 169.75902516 215.20254517 173.66062927 C215.20690834 175.16811638 215.21566867 176.67559608 215.22843683 178.18303543 C215.25077363 182.31836814 215.21084254 186.45110564 215.16065621 190.58610761 C215.11744394 195.04751037 215.1320871 199.50876848 215.13967896 203.97032166 C215.14492091 211.69770896 215.11356487 219.42425151 215.05730057 227.15142632 C214.97600606 238.3234512 214.9499839 249.49506789 214.93742065 260.6673565 C214.9155379 278.7936873 214.84899866 296.91956792 214.75439453 315.0456543 C214.66259484 332.65272775 214.59181541 350.25967889 214.54931641 367.86694336 C214.54668917 368.95237069 214.54406194 370.03779801 214.54135509 371.15611707 C214.52830465 376.6014238 214.51566759 382.04673139 214.50323606 387.49203956 C214.3995799 432.66167153 214.22345839 477.83081252 214 523 C193.83284364 523.04678102 173.66569834 523.08201872 153.49849892 523.10362434 C144.13390918 523.11392414 134.76935321 523.12795965 125.40478516 523.15087891 C117.23986518 523.17085251 109.07496968 523.18372585 100.91002595 523.18817699 C96.58927466 523.19077765 92.26859334 523.19686323 87.94786453 523.21146011 C83.8751178 523.22510683 79.80246942 523.2292084 75.729702 523.22621536 C74.24066889 523.22676237 72.75163225 523.23069739 71.26261902 523.23841095 C51.03892031 523.33797445 32.96894758 518.21697533 18 504 C1.75999455 485.28139276 -0.16059279 467.04882482 -0.12025452 443.25814819 C-0.12069094 441.34385973 -0.12156715 439.42957132 -0.12284368 437.51528323 C-0.12507471 432.27034196 -0.12108642 427.02542119 -0.11606562 421.78048253 C-0.11174131 416.11871038 -0.11320895 410.45693935 -0.1139679 404.79516602 C-0.11449187 394.99083559 -0.11135823 385.18651183 -0.10573006 375.38218307 C-0.097598 361.20682315 -0.09499808 347.03146645 -0.09374207 332.85610445 C-0.09155423 309.85670427 -0.08491002 286.8573083 -0.07543945 263.85791016 C-0.06625111 241.51806659 -0.05916941 219.17822398 -0.05493164 196.83837891 C-0.05480011 196.14944034 -0.05466859 195.46050177 -0.05453308 194.75068627 C-0.05321453 187.83191171 -0.05193872 180.91313714 -0.05069422 173.99436257 C-0.04025793 115.99623931 -0.02261604 57.99811974 0 0 Z " fill="#4284F3" transform="translate(42,331)"/>
<path d="M0 0 C0.04577746 58.77919789 0.08102327 117.55839517 0.10213066 176.33760719 C0.10462528 183.27699206 0.10721839 190.2163769 0.10986328 197.15576172 C0.1101248 197.84630478 0.11038632 198.53684784 0.11065576 199.24831644 C0.11917467 221.62078226 0.13419446 243.99323797 0.15259444 266.36569766 C0.17200782 290.01335852 0.18399467 313.66101085 0.18817699 337.30867982 C0.19092124 351.47186305 0.19958891 365.63501723 0.21583293 379.79819152 C0.22640458 389.51032984 0.22960021 399.22245315 0.22700275 408.93459681 C0.22572176 414.53799066 0.22768599 420.14133373 0.23841095 425.74471855 C0.2481651 430.87844659 0.24862082 436.01208984 0.24179779 441.14582184 C0.24095487 442.99932223 0.24347351 444.85282797 0.24976636 446.70631787 C0.31967802 468.57640259 -3.07389448 487.77890973 -18.75 504.25 C-26.02267993 511.15140198 -33.76858421 515.76057801 -43.0625 519.375 C-43.69881348 519.62604492 -44.33512695 519.87708984 -44.99072266 520.13574219 C-54.96414145 523.77397229 -65.71482402 523.14117788 -76.18017578 523.11352539 C-77.68902077 523.1132428 -79.1978659 523.11340265 -80.70671082 523.1139679 C-84.77418299 523.11425308 -88.84162526 523.10840161 -92.90909052 523.10139394 C-97.17050173 523.0951138 -101.43191373 523.09455293 -105.69332886 523.09336853 C-113.75013495 523.0902689 -121.80692736 523.08207405 -129.86372745 523.07201904 C-139.04153376 523.06081529 -148.21934074 523.05533674 -157.39715219 523.05032361 C-176.26477586 523.03989022 -195.13238683 523.02231742 -214 523 C-214.43513411 476.86733302 -214.76980588 430.73488372 -214.97024126 384.60056823 C-214.99400395 379.15086374 -215.01859615 373.7011633 -215.04370117 368.25146484 C-215.04868507 367.16655341 -215.05366897 366.08164198 -215.05880389 364.96385445 C-215.1414222 347.40959721 -215.29119451 329.85652529 -215.46590313 312.30297063 C-215.64374672 294.28379929 -215.74915038 276.26524755 -215.7876814 258.24523461 C-215.81372052 247.13005911 -215.89586569 236.01823379 -216.05041287 224.90409006 C-216.15105465 217.27676196 -216.18115853 209.65115873 -216.15652617 202.02321528 C-216.14438243 197.62435728 -216.16262057 193.23133814 -216.26490402 188.83352661 C-216.83294378 163.16887055 -216.83294378 163.16887055 -212.12492204 156.24069452 C-207.74943206 151.76552841 -202.83540196 148.77748512 -197.21422923 146.10234666 C-194.20858341 144.60599588 -191.81582974 142.74381586 -189.21875 140.625 C-188.43048828 140.02042969 -187.64222656 139.41585937 -186.83007812 138.79296875 C-185.67668945 137.90544922 -185.67668945 137.90544922 -184.5 137 C-177.11503204 131.34459703 -169.66801745 125.7852703 -162.1640625 120.2890625 C-156.22328567 115.92722968 -150.3524674 111.47945452 -144.5 107 C-137.11358208 101.34646605 -129.66805534 95.78529806 -122.1640625 90.2890625 C-116.22328567 85.92722968 -110.3524674 81.47945452 -104.5 77 C-97.11358208 71.34646605 -89.66805534 65.78529806 -82.1640625 60.2890625 C-76.22328567 55.92722968 -70.3524674 51.47945452 -64.5 47 C-57.88052785 41.9334832 -51.22492873 36.92570609 -44.5 32 C-37.63119629 26.96817673 -30.82936869 21.85560632 -24.0625 16.6875 C-23.17908936 16.01332031 -22.29567871 15.33914063 -21.38549805 14.64453125 C-18.23577522 12.23953681 -15.08627016 9.83430294 -11.94335938 7.42041016 C-10.23610249 6.10957653 -8.52490807 4.80409143 -6.8125 3.5 C-5.91144531 2.8090625 -5.01039063 2.118125 -4.08203125 1.40625 C-2 0 -2 0 0 0 Z " fill="#34A852" transform="translate(982,331)"/>
<path d="M0 0 C2.69189992 2.15575388 5.27610588 4.37593937 7.82421875 6.69921875 C8.55125 7.35664063 9.27828125 8.0140625 10.02734375 8.69140625 C22.14249056 20.20541982 31.98630323 38.00446457 35.44921875 54.38671875 C35.68898438 55.48371094 35.92875 56.58070313 36.17578125 57.7109375 C39.15720409 74.34130494 38.61088683 91.93090785 38.8907814 108.77190208 C38.97882531 113.94363353 39.10328417 119.10897931 39.3125 124.27734375 C40.74490559 160.5975093 40.74490559 160.5975093 33.875 168.32519531 C29.98273765 171.58783715 25.79962047 173.77201937 21.11999512 175.70050049 C18.03270095 177.04354814 15.62440237 178.93321697 13.04296875 181.07421875 C12.25470703 181.67878906 11.46644531 182.28335938 10.65429688 182.90625 C9.88537109 183.49792969 9.11644531 184.08960938 8.32421875 184.69921875 C0.93925079 190.35462172 -6.5077638 195.91394845 -14.01171875 201.41015625 C-19.95249558 205.77198907 -25.82331385 210.21976423 -31.67578125 214.69921875 C-39.06219917 220.3527527 -46.50772591 225.91392069 -54.01171875 231.41015625 C-59.95249558 235.77198907 -65.82331385 240.21976423 -71.67578125 244.69921875 C-79.06219917 250.3527527 -86.50772591 255.91392069 -94.01171875 261.41015625 C-99.95249558 265.77198907 -105.82331385 270.21976423 -111.67578125 274.69921875 C-118.2952534 279.76573555 -124.95085252 284.77351266 -131.67578125 289.69921875 C-138.54458496 294.73104202 -145.34641256 299.84361243 -152.11328125 305.01171875 C-153.43839722 306.02298828 -153.43839722 306.02298828 -154.7902832 307.0546875 C-157.94000603 309.45968194 -161.08951109 311.86491581 -164.23242188 314.27880859 C-165.93967876 315.58964222 -167.65087318 316.89512732 -169.36328125 318.19921875 C-170.26433594 318.89015625 -171.16539062 319.58109375 -172.09375 320.29296875 C-174.17578125 321.69921875 -174.17578125 321.69921875 -176.17578125 321.69921875 C-176.65714259 286.55665548 -177.02682895 251.41476259 -177.24815317 216.26959288 C-177.27441593 212.11429352 -177.3015969 207.95900063 -177.3293457 203.80371094 C-177.33485422 202.976517 -177.34036274 202.14932306 -177.34603819 201.29706264 C-177.43725561 187.92761545 -177.60273432 174.56007721 -177.79598997 161.19176006 C-177.99283569 147.4598914 -178.10911018 133.72901769 -178.15163964 119.9957962 C-178.18036558 111.52996132 -178.27082602 103.06952167 -178.44202705 94.60534966 C-178.55361847 88.78965636 -178.58646104 82.97672326 -178.55931018 77.16003883 C-178.54592597 73.80655457 -178.57702142 70.46992474 -178.67909622 67.11687088 C-179.24265488 47.63990897 -179.24265488 47.63990897 -174.15444922 41.10196686 C-169.24534731 36.35635321 -163.75542564 32.75698015 -157.8769449 29.32817459 C-153.56716009 26.72912838 -149.61751101 23.67646046 -145.61328125 20.63671875 C-144.0566908 19.49336139 -142.49832799 18.35240951 -140.9375 17.21484375 C-137.62161778 14.78003291 -134.33794312 12.30777078 -131.0703125 9.80859375 C-91.03062231 -20.77675399 -43.62397955 -31.60458051 0 0 Z " fill="#FABB04" transform="translate(944.17578125,168.30078125)"/>
<path d="M0 0 C7.36002164 5.64077737 14.79540328 11.17074102 22.27319336 16.65405273 C22.96388885 17.19239085 23.65458433 17.73072897 24.36620998 18.28538036 C26.55613841 19.81050718 28.47876408 20.90036496 30.85422611 22.04249287 C36.16484336 24.84464193 41.03045604 27.86901276 43.01596141 33.79485106 C44.41888652 41.78947489 44.03334646 49.9152725 43.85888672 57.99658203 C43.84628035 60.73714909 43.85637676 63.4775245 43.86552429 66.21809387 C43.87336365 72.10503136 43.82659177 77.98946192 43.74195671 83.87576866 C43.61967767 92.38575975 43.58094899 100.8945474 43.56213684 109.40532169 C43.52936399 123.21507372 43.42969903 137.0234914 43.28759766 150.83251953 C43.14976239 164.24098059 43.0436613 177.64907832 42.97998047 191.05810547 C42.97603962 191.88560028 42.97209876 192.71309509 42.96803849 193.56566551 C42.94846192 197.71725806 42.92950655 201.86885317 42.91085994 206.02045 C42.75553605 240.42401717 42.49149835 274.82600005 42.15600586 309.22827148 C39.34552654 307.85341741 36.86543338 306.39466897 34.34741211 304.53295898 C33.61135742 303.99026367 32.87530273 303.44756836 32.11694336 302.88842773 C31.32545898 302.29932617 30.53397461 301.71022461 29.71850586 301.10327148 C28.88448242 300.48581055 28.05045898 299.86834961 27.19116211 299.23217773 C20.0771934 293.94963252 13.03258448 288.5776898 5.99609375 283.19262695 C0.25996011 278.80961899 -5.5201437 274.49390107 -11.34399414 270.22827148 C-18.97139431 264.64164728 -26.50043979 258.9355081 -34.00805664 253.18920898 C-39.74302141 248.80762823 -45.52158977 244.49284191 -51.34399414 240.22827148 C-58.97139431 234.64164728 -66.50043979 228.9355081 -74.00805664 223.18920898 C-79.74302141 218.80762823 -85.52158977 214.49284191 -91.34399414 210.22827148 C-98.97139431 204.64164728 -106.50043979 198.9355081 -114.00805664 193.18920898 C-120.50360397 188.22653418 -127.06445393 183.36112768 -133.66015625 178.53271484 C-140.66768325 173.3896631 -147.57877609 168.12410547 -154.46508789 162.82006836 C-155.28235352 162.19293945 -156.09961914 161.56581055 -156.94165039 160.91967773 C-158.00138062 160.10285522 -158.00138062 160.10285522 -159.08251953 159.26953125 C-161.68361539 157.18663072 -161.68361539 157.18663072 -164.33963013 156.14498901 C-167.6136175 154.48311988 -169.54197128 153.11399518 -171.84399414 150.22827148 C-173.74644115 143.82855622 -173.05199272 136.75886796 -172.89086914 130.16577148 C-172.87727047 128.17149183 -172.86783802 126.17717984 -172.86236572 124.18286133 C-172.83557059 118.93328627 -172.74710871 113.68642583 -172.6472168 108.43780518 C-172.57676657 104.18938154 -172.55030871 99.94124019 -172.52637863 95.69233704 C-172.49654158 90.57914975 -172.44633651 85.46623802 -172.39086914 80.35327148 C-172.38104759 79.39621307 -172.37122604 78.43915466 -172.36110687 77.45309448 C-172.12546017 57.84648596 -170.83535421 39.03167674 -161.84399414 21.22827148 C-161.18077148 19.86895508 -161.18077148 19.86895508 -160.50415039 18.48217773 C-149.55334724 -2.90373978 -129.36417698 -19.41375997 -106.65063477 -27.00463867 C-103.40224649 -28.01879598 -100.13637895 -28.90935413 -96.84399414 -29.77172852 C-95.9480957 -30.01793945 -95.05219727 -30.26415039 -94.12915039 -30.51782227 C-57.85265522 -38.82760394 -27.6091568 -21.16363218 0 0 Z " fill="#C4221F" transform="translate(213.843994140625,180.771728515625)"/>
</svg>
